<?xml version="1.0" standalone="no"?>
<!DOCTYPE svg PUBLIC "-//W3C//DTD SVG 20010904//EN"
 "http://www.w3.org/TR/2001/REC-SVG-20010904/DTD/svg10.dtd">
<svg version="1.0" xmlns="http://www.w3.org/2000/svg"
 width="420.000000pt" height="420.000000pt" viewBox="0 0 420.000000 420.000000"
 preserveAspectRatio="xMidYMid meet">

<g transform="translate(0.000000,420.000000) scale(0.100000,-0.100000)"
fill="#000000" stroke="none">
<path d="M1785 3311 c-170 -28 -337 -118 -496 -269 -222 -209 -318 -462 -301
-792 4 -87 10 -114 33 -165 16 -33 29 -67 30 -75 1 -23 91 -132 117 -141 20
-7 22 -5 22 21 0 17 4 30 8 30 15 0 32 -24 32 -46 0 -12 6 -24 14 -27 11 -5
18 8 27 51 15 71 33 108 62 126 52 33 386 27 530 -10 74 -19 105 -37 117 -70
12 -31 30 -31 30 -1 0 38 34 60 89 61 56 1 91 -22 91 -61 0 -30 18 -30 30 2
10 27 63 57 132 74 123 30 469 37 519 10 20 -10 50 -80 56 -129 7 -56 11 -64
28 -50 7 6 15 21 17 33 4 28 32 29 36 0 5 -32 33 -38 54 -11 32 40 58 96 52
112 -3 8 10 41 30 73 101 164 108 474 15 680 -126 283 -440 512 -759 555 -103
13 -166 5 -215 -28 -41 -28 -58 -30 -75 -9 -36 43 -213 74 -325 56z m367 -593
c9 -7 23 -29 32 -49 17 -37 308 -367 332 -376 25 -9 15 -20 -41 -43 -97 -39
-166 -94 -151 -119 3 -4 51 -1 108 6 173 21 234 18 303 -17 33 -16 73 -30 89
-30 16 0 27 -3 23 -6 -3 -3 -61 -6 -129 -5 -115 1 -289 -11 -366 -25 -24 -5
-30 -9 -20 -15 8 -6 2 -7 -17 -3 -22 4 -40 -1 -68 -20 l-38 -26 -30 23 c-44
32 -128 31 -162 -1 l-25 -24 -30 22 c-18 13 -37 20 -47 16 -10 -4 -14 -2 -9 6
5 8 -2 9 -22 4 -23 -5 -26 -4 -14 5 12 8 6 9 -25 5 -23 -3 -34 -2 -27 3 21 13
-51 20 -263 28 -104 3 -179 9 -165 13 14 4 50 20 80 35 63 32 114 34 298 11
57 -6 105 -9 108 -4 10 16 -16 44 -68 76 -81 49 -163 74 -240 74 -38 1 -68 3
-68 5 0 3 16 36 36 73 84 161 140 196 464 287 52 15 69 25 85 50 21 34 42 41
67 21z"/>
<path d="M1540 1974 c-85 -31 -118 -59 -135 -114 -7 -24 -6 -24 26 6 19 18 49
39 66 48 l33 16 -10 -25 c-14 -38 -12 -92 5 -125 26 -50 128 -66 187 -30 41
25 62 26 54 3 -6 -15 -4 -15 13 1 12 11 23 34 27 52 3 19 10 34 14 34 4 0 22
-16 39 -35 33 -38 40 -32 17 13 -18 36 -103 115 -147 138 -34 17 -158 29 -189
18z m94 -56 c15 -24 -13 -53 -43 -43 -23 7 -28 34 -9 53 16 16 38 12 52 -10z"/>
<path d="M2509 1971 c-81 -26 -199 -140 -199 -191 0 -6 14 5 31 25 17 19 35
35 39 35 4 0 11 -15 14 -34 9 -47 33 -64 99 -72 51 -6 61 -4 99 21 38 25 43
26 53 11 22 -30 40 8 40 86 0 37 1 68 3 68 11 0 52 -27 81 -54 32 -30 33 -30
26 -6 -22 71 -88 112 -189 116 -39 2 -83 0 -97 -5z m1 -65 c0 -20 -27 -39 -45
-32 -21 8 -19 21 8 34 30 15 37 14 37 -2z"/>
<path d="M1030 1892 c0 -4 20 -26 43 -49 24 -24 49 -57 54 -75 7 -22 11 -26
12 -13 1 27 -54 122 -78 135 -23 12 -31 13 -31 2z"/>
<path d="M3120 1870 c-29 -31 -74 -134 -67 -153 2 -6 9 10 16 35 9 31 28 60
57 89 24 24 44 47 44 51 0 17 -23 7 -50 -22z"/>
<path d="M1314 1838 c-4 -7 -14 -23 -21 -35 -9 -14 -11 -23 -4 -27 6 -4 19 11
31 34 11 22 16 40 11 40 -5 0 -13 -6 -17 -12z"/>
<path d="M2887 1805 c10 -22 20 -32 26 -26 6 6 2 19 -9 35 -27 37 -36 32 -17
-9z"/>
<path d="M1261 1724 c0 -11 3 -14 6 -6 3 7 2 16 -1 19 -3 4 -6 -2 -5 -13z"/>
<path d="M2932 1715 c0 -16 2 -22 5 -12 2 9 2 23 0 30 -3 6 -5 -1 -5 -18z"/>
<path d="M1160 1675 c0 -51 23 -175 32 -175 6 0 8 17 5 43 -4 23 -9 68 -13
100 -6 56 -24 80 -24 32z"/>
<path d="M3020 1688 c-1 -31 -19 -155 -26 -171 -4 -11 -1 -17 9 -17 11 0 18
20 26 75 14 93 14 125 1 125 -5 0 -10 -6 -10 -12z"/>
<path d="M868 563 c-25 -46 -178 -520 -178 -555 0 -5 626 -8 1391 -8 l1391 0
-7 43 c-11 66 -114 437 -130 468 -15 29 -33 44 -41 36 -2 -2 -9 -96 -14 -208
-14 -274 -11 -263 -65 -289 l-44 -21 -1083 6 c-1145 7 -1094 5 -1144 53 -19
18 -21 35 -27 183 -8 201 -18 319 -26 319 -4 0 -14 -12 -23 -27z"/>
</g>
</svg>
